<!--?xml version="1.0" encoding="utf-8"?-->
<!-- Generator: Adobe Illustrator 15.1.0, SVG Export Plug-In . SVG Version: 6.00 Build 0)  -->

<svg version="1.1" id="_x32_" xmlns="http://www.w3.org/2000/svg" xmlns:xlink="http://www.w3.org/1999/xlink" x="0px" y="0px" width="512px" height="512px" viewBox="0 0 512 512" style="width: 128px; height: 128px; opacity: 1;" xml:space="preserve">
<style type="text/css">

	.st0{fill:#4B4B4B;}

</style>
<g>
	<path class="st0" d="M335.859,68.875c0,0,4.656-12.469,29.734-28.297c24.063-15.172,5.594-36.141-29.734-28.422
		C311.469,17.469,319.75,0,285.547,0c-34.219,0-25.922,17.469-50.313,12.156c-35.328-7.719-53.797,13.25-29.734,28.422
		c25.078,15.828,29.734,28.297,29.734,28.297H335.859z" style="fill: rgb(51, 118, 174);"></path>
	<path class="st0" d="M432.875,288.344c-5.469,3.219-11.813,5.125-18.625,5.125h-59.375c-20.281,0-36.766-16.5-36.766-36.781
		c0-5.672,1.328-11.172,3.766-16.109c-2.438-4.938-3.766-10.438-3.766-16.125c0-5.672,1.328-11.172,3.766-16.109
		c-2.438-4.938-3.766-10.438-3.766-16.109c0-5.688,1.328-11.188,3.766-16.125c-2.438-4.938-3.766-10.438-3.766-16.125
		c0-3.969,0.641-7.781,1.813-11.359h-36.75c-1.719,18.797-7.984,47.141-28.594,71.813c-22.453,26.844-55.891,42.531-99.313,46.813
		c-14.125,27.375-24.203,56.891-24.203,86.625c0,87.328,70.797,158.125,158.109,158.125c87.328,0,158.125-70.797,158.125-158.125
		C447.297,331.625,441.625,309.531,432.875,288.344z M334,411.438c-2.375,4.5-5.688,8.25-9.859,11.313s-9.203,5.344-15.016,6.844
		c-2.547,0.656-5.219,1.094-7.922,1.469v16.953h-20.234v-16.625c-5.766-0.484-11.281-1.375-16.469-2.813
		c-7.922-2.172-18.297-10.922-18.297-10.922c-0.875-0.516-1.469-1.438-1.594-2.438c-0.141-1.031,0.219-2.031,0.938-2.766
		l10.141-10.141c1.094-1.094,2.797-1.313,4.109-0.5c0,0,7.594,6.594,13.344,8.156c5.75,1.578,11.453,2.359,17.141,2.359
		c7.188,0,13.125-1.266,17.828-3.797c4.719-2.578,7.063-6.5,7.063-11.906c0-3.875-1.141-6.938-3.484-9.188
		c-2.313-2.25-6.234-3.656-11.766-4.25l-18.156-1.563c-10.766-1.063-19.063-4.063-24.875-8.984
		c-5.844-4.922-8.766-12.422-8.766-22.406c0-5.547,1.125-10.469,3.375-14.797c2.25-4.344,5.297-8.016,9.188-11
		c3.891-2.969,8.422-5.219,13.578-6.719c2.141-0.625,4.406-1.031,6.703-1.406v-14.609h20.234v14.313
		c4.734,0.453,9.219,1.234,13.422,2.375c7.078,1.938,14.547,7.766,14.547,7.766c0.938,0.484,1.563,1.406,1.734,2.438
		c0.156,1.047-0.188,2.094-0.922,2.844l-9.516,9.656c-1.016,1.031-2.578,1.297-3.875,0.625c0,0-5.625-4-10.5-5.281
		c-4.875-1.266-9.969-1.922-15.359-1.922c-7.031,0-12.219,1.359-15.578,4.047s-5.031,6.219-5.031,10.531
		c0,3.906,1.172,6.891,3.578,8.969c2.391,2.109,6.422,3.453,12.094,4.031l15.922,1.375c11.813,1.031,20.734,4.156,26.797,9.406
		c6.047,5.219,9.078,12.844,9.078,22.859C337.594,401.719,336.406,406.953,334,411.438z" style="fill: rgb(51, 118, 174);"></path>
	<path class="st0" d="M432.063,224.453c0-7.141-4.234-13.281-10.328-16.109c6.094-2.844,10.328-8.969,10.328-16.109
		c0-7.156-4.234-13.297-10.344-16.125c6.094-2.828,10.344-8.953,10.344-16.125c0-9.828-7.969-17.797-17.813-17.797h-59.375
		c-9.828,0-17.813,7.969-17.813,17.797c0,7.172,4.25,13.297,10.344,16.125c-6.094,2.828-10.344,8.969-10.344,16.125
		c0,7.141,4.25,13.266,10.328,16.109c-6.078,2.828-10.328,8.969-10.328,16.109c0,7.156,4.25,13.297,10.328,16.109
		c-6.078,2.844-10.328,8.969-10.328,16.125c0,9.844,7.984,17.813,17.813,17.813h59.375c9.828,0,17.813-7.969,17.813-17.813
		c0-7.156-4.25-13.281-10.328-16.109C427.813,237.75,432.063,231.609,432.063,224.453z" style="fill: rgb(51, 118, 174);"></path>
	<path class="st0" d="M346.188,89.641c-19.984,0-113.234,0-113.234,0c-48.969,0-62.656,38.328-100.578,38.328v121.641l16.578-0.766
		c126.688-9.813,115.609-119.188,115.609-119.188s31.078,0,71.094,0C375.688,129.656,377.797,89.641,346.188,89.641z" style="fill: rgb(51, 118, 174);"></path>
	<rect x="64.703" y="113.75" class="st0" width="50.563" height="164.281" style="fill: rgb(51, 118, 174);"></rect>
</g>
</svg>
