<!--?xml version="1.0" encoding="utf-8"?-->
<!-- Generator: Adobe Illustrator 18.1.1, SVG Export Plug-In . SVG Version: 6.00 Build 0)  -->

<svg version="1.1" id="_x32_" xmlns="http://www.w3.org/2000/svg" xmlns:xlink="http://www.w3.org/1999/xlink" x="0px" y="0px" viewBox="0 0 512 512" style="width: 128px; height: 128px; opacity: 1;" xml:space="preserve">
<style type="text/css">
	.st0{fill:#4B4B4B;}
</style>
<g>
	<path class="st0" d="M147.244,207.801c21.256,0,38.485-17.237,38.485-38.485l14.052-147.244h-61.569l-29.454,147.244
		C108.759,190.564,125.988,207.801,147.244,207.801z" style="fill: rgb(51, 118, 174);"></path>
	<path class="st0" d="M256.004,207.801c21.248,0,38.477-17.237,38.477-38.485l-7.689-147.244h-61.576l-7.697,147.244
		C217.518,190.564,234.748,207.801,256.004,207.801z" style="fill: rgb(51, 118, 174);"></path>
	<path class="st0" d="M364.763,207.801c21.249,0,38.478-17.237,38.478-38.485L373.794,22.071h-61.568l14.052,147.244
		C326.278,190.564,343.507,207.801,364.763,207.801z" style="fill: rgb(51, 118, 174);"></path>
	<path class="st0" d="M460.798,22.071h-61.569l35.808,147.244c0,17.988,12.391,32.972,29.075,37.188V457.73h-57.997V287.744H259.818
		V457.73H47.896V206.504c16.675-4.216,29.074-19.201,29.074-37.188l35.801-147.244H51.202L0,169.316
		c0,12.687,6.218,23.85,15.698,30.864v289.75H496.31v-289.75c9.471-7.014,15.69-18.177,15.69-30.864L460.798,22.071z
		 M381.969,457.73h-98.006V311.896h98.006V457.73z" style="fill: rgb(51, 118, 174);"></path>
	<rect x="109.404" y="276.338" class="st0" width="85.577" height="85.577" style="fill: rgb(51, 118, 174);"></rect>
</g>
</svg>
