<!--?xml version="1.0" encoding="utf-8"?-->
<!-- Generator: Adobe Illustrator 18.1.1, SVG Export Plug-In . SVG Version: 6.00 Build 0)  -->

<svg version="1.1" id="_x32_" xmlns="http://www.w3.org/2000/svg" xmlns:xlink="http://www.w3.org/1999/xlink" x="0px" y="0px" viewBox="0 0 512 512" style="width: 128px; height: 128px; opacity: 1;" xml:space="preserve">
<style type="text/css">
	.st0{fill:#4B4B4B;}
</style>
<g>
	<path class="st0" d="M435.514,150.898h-67.96l66.426-49.777l-75.176-56.345l-75.182,56.345l66.432,49.777H161.952l66.426-49.777
		l-75.176-56.345l-75.176,56.345l66.433,49.777H76.487C34.243,150.898,0,185.142,0,227.385v185.851
		c0,7.581,6.148,13.73,13.729,13.73h41.088c-0.29,1.804-0.554,3.615-0.554,5.493c0,19.203,15.561,34.764,34.764,34.764
		c19.196,0,34.763-15.561,34.763-34.764c0-1.878-0.264-3.689-0.554-5.493h21.068c-0.291,1.804-0.554,3.615-0.554,5.493
		c0,19.203,15.561,34.764,34.764,34.764c19.196,0,34.764-15.561,34.764-34.764c0-1.878-0.264-3.689-0.554-5.493h86.561
		c-0.291,1.804-0.554,3.615-0.554,5.493c0,19.203,15.56,34.764,34.763,34.764c19.196,0,34.764-15.561,34.764-34.764
		c0-1.878-0.264-3.689-0.554-5.493h21.068c-0.291,1.804-0.554,3.615-0.554,5.493c0,19.203,15.562,34.764,34.764,34.764
		c19.196,0,34.763-15.561,34.763-34.764c0-1.878-0.264-3.689-0.554-5.493h41.081c7.581,0,13.73-6.149,13.73-13.73V227.385
		C512,185.142,477.757,150.898,435.514,150.898z M149.622,371.615h-62.27v-124.54h62.27V371.615z M153.203,131.52l-40.568-30.398
		l40.568-30.406l40.567,30.406L153.203,131.52z M288,309.344h-72.648v-62.27H288V309.344z M318.236,101.122l40.568-30.406
		l40.568,30.406l-40.568,30.398L318.236,101.122z M424.649,309.344H352v-62.27h72.649V309.344z" style="fill: rgb(51, 118, 174);"></path>
</g>
</svg>
